<?xml version="1.0" encoding="utf-8"?>
<!-- Generator: Adobe Illustrator 18.0.0, SVG Export Plug-In . SVG Version: 6.00 Build 0)  -->
<!DOCTYPE svg PUBLIC "-//W3C//DTD SVG 1.1//EN" "http://www.w3.org/Graphics/SVG/1.1/DTD/svg11.dtd">
<svg version="1.1" id="Layer_1" xmlns:sketch="http://www.bohemiancoding.com/sketch/ns"
	 xmlns="http://www.w3.org/2000/svg" xmlns:xlink="http://www.w3.org/1999/xlink" x="0px" y="0px" viewBox="7 10 126 81.8"
	 enable-background="new 7 10 126 81.8" xml:space="preserve">
<title>logo--footer</title>
<desc>Created with Sketch.</desc>
<g id="Page-1" sketch:type="MSPage">
	<g id="logo--footer" sketch:type="MSArtboardGroup">
		<g id="logo-old-grey" transform="translate(7.000000, 10.000000)" sketch:type="MSLayerGroup">
			<path id="Shape" sketch:type="MSShapeGroup" fill="#9DA8AF" d="M51.8,36.4V11.9c0-0.7,0.5-1.3,1.1-1.3c0.6,0,1.1,0.6,1.1,1.3
				v24.5H51.8L51.8,36.4z M57.4,36.4V11.9c0-0.7-0.5-1.3-1.1-1.3c-0.6,0-1.1,0.6-1.1,1.3v24.5H57.4L57.4,36.4z M66.4,36.3V22.8
				c0-0.7-0.5-1.2-1-1.2c-0.6,0-1,0.5-1,1.2v13.5H66.4L66.4,36.3z M74.6,36.3v-5.5c0-0.6-0.4-1.1-1-1.1s-1,0.5-1,1.1v5.5H74.6
				L74.6,36.3z M46.8,9h3.4l-1.7-3.4L46.8,9L46.8,9z M49.7,9h9.8l-4.9-9L49.7,9L49.7,9z M62.3,19.4h6.1L65.4,5.6L62.3,19.4
				L62.3,19.4z M62.4,9l-1.7-3.4L59.1,9h0.2v64.6h3.1L62.4,9L62.4,9z M78.5,28l-1-5.3L76.4,28h0.1v19.8h1.9L78.5,28L78.5,28L78.5,28
				z M76.5,28l-0.3-1.9h-5.9V28H76.5L76.5,28z M70.8,19.4l-1.2-5.3l-1.2,5.3h0V60h2.5V19.4L70.8,19.4z M23.4,81.8L23.4,81.8
				c2.9,0,5.1-0.8,6.4-1.3c1.3-0.5,3.3-1.2,6-1.2c2.7,0,4.7,0.7,6,1.2c1.3,0.5,3.5,1.3,6.4,1.3c2.9,0,5.1-0.8,6.3-1.3
				c1.2-0.5,3.6-1.2,6.4-1.2c2.7,0,5.1,0.7,6.4,1.2c1.3,0.5,3.5,1.3,6.3,1.3c2.9,0,5.1-0.8,6.4-1.3c1.3-0.5,3.3-1.2,6-1.2
				c2.7,0,4.7,0.7,6,1.2c1.3,0.5,3.5,1.3,6.4,1.3h0.5v-1h-0.5c-2.7,0-4.7-0.7-6-1.2c-1.3-0.5-3.5-1.3-6.3-1.3
				c-2.9,0-5.1,0.8-6.4,1.3c-1.3,0.5-3.3,1.2-6,1.2c-2.7,0-4.7-0.7-6-1.2c-1.3-0.5-3.8-1.3-6.7-1.3c-2.9,0-5.4,0.8-6.7,1.3
				c-1.3,0.5-3.3,1.2-6,1.2c-2.7,0-4.7-0.7-6-1.2c-1.3-0.5-3.5-1.3-6.4-1.3c-2.9,0-5.1,0.8-6.3,1.3c-1.3,0.5-3.3,1.2-6,1.2h-0.5v1
				H23.4L23.4,81.8z M23.4,80L23.4,80c2.9,0,5.1-0.8,6.4-1.3c1.3-0.5,3.3-1.2,6-1.2s4.7,0.7,6,1.2c1.3,0.5,3.5,1.3,6.4,1.3
				c2.9,0,5.1-0.8,6.4-1.3c1.2-0.5,3.6-1.2,6.4-1.2c2.7,0,5.1,0.7,6.4,1.2c1.3,0.5,3.5,1.3,6.3,1.3c2.9,0,5.1-0.8,6.4-1.3
				c1.3-0.5,3.3-1.2,6-1.2c2.7,0,4.7,0.7,6,1.2c1.3,0.5,3.5,1.3,6.4,1.3h0.5v-1h-0.5c-2.7,0-4.7-0.7-6-1.2c-1.3-0.5-3.5-1.3-6.3-1.3
				c-2.9,0-5.1,0.8-6.4,1.3c-1.3,0.5-3.3,1.2-6,1.2s-4.7-0.7-6-1.2c-1.3-0.5-3.8-1.3-6.7-1.3c-2.9,0-5.4,0.8-6.7,1.3
				c-1.3,0.5-3.3,1.2-6,1.2c-2.7,0-4.7-0.7-6-1.2c-1.3-0.5-3.5-1.3-6.3-1.3c-2.9,0-5.1,0.8-6.4,1.3c-1.3,0.5-3.3,1.2-6,1.2h-0.5v1
				H23.4L23.4,80z M92.8,64.7v-3.4h4.5v-1.4h-4.5v-3h6.1v-1.4h-8.5v0h-2.1v1.2h2.1l0,0v9.3H99v-1.4L92.8,64.7L92.8,64.7L92.8,64.7z
				 M44.5,55.5c5.1,0,6.8,1.5,6.8,5.2c0,4.9-3.5,5.3-6.8,5.3h-4l0-9.3h-2.1v-1.2H43L44.5,55.5L44.5,55.5z M44.5,64.7
				c2.7,0,4.1-0.8,4.1-4c0-2.6-0.7-4-4.1-4H43v8H44.5L44.5,64.7z M3.3,57.9c0-0.9,1.2-1.3,2.6-1.3c1.2,0,2.3,0.2,3.2,0.4v2h1.2v-3.4
				C9.7,55.6,8,55.3,6,55.3c-3.3,0-6,0.8-6,2.7c0,3,8.4,3.1,8.4,5.4c0,0.7-0.7,1.5-3.1,1.5c-2.2,0-3.9-0.6-5-1v1.8
				c0.5,0.1,2.6,0.4,4.9,0.4c3.8,0,6.5-1,6.5-3C11.6,60,3.3,59.8,3.3,57.9L3.3,57.9z M111.6,55.5v7.7h0l-5.6-7.7h-3.1v0h-2.3v1.2
				h2.3v9.3h2.3v-8.1h0l5.9,8.1h2.8V55.5H111.6L111.6,55.5z M116.2,55.5v0.1V59h1.2v-2.1h2.4v9.2h2.5v-9.2h3.7v-1.4H116.2
				L116.2,55.5z M13.5,55.5v1.4h0V59h1.2v-2.1h2.4V66h2.5v-9.2h3.7v-1.4H13.5L13.5,55.5z M81.4,60.1v1.3h2.1v3.4
				c-0.2,0.2-0.9,0.4-2.1,0.4c-3,0-3.5-2.3-3.5-4.2c0-2.1,0.5-4,2.8-4.1h4.5v-1.3h-4.6v0c-3.9,0.1-5.4,2.1-5.4,5.4
				c0,3.1,1.9,5.4,6.2,5.4c2.3,0,4-0.7,4.6-1v-5.3L81.4,60.1L81.4,60.1z M37,66h-2.6l-1.3-2.8h-5.3L26.7,66h-2.6l4.4-9.3h-2.1v-1.2
				h2.7v0h3L37,66L37,66z M32.6,61.8l-2-4.6h0l-2,4.6H32.6L32.6,61.8z"/>
		</g>
	</g>
</g>
</svg>
